<?xml version="1.0"?>
<svg xmlns="http://www.w3.org/2000/svg" xmlns:xlink="http://www.w3.org/1999/xlink" xmlns:svgjs="http://svgjs.com/svgjs" version="1.1" width="512" height="512" x="0" y="0" viewBox="0 0 512 512" style="enable-background:new 0 0 512 512" xml:space="preserve" class=""><g transform="matrix(1.04,0,0,1.04,-10.23999824523878,-10.239999809264361)"><g xmlns="http://www.w3.org/2000/svg" id="Out_line" data-name="Out line"><path d="M128,208a24,24,0,1,0-24,24A24.02687,24.02687,0,0,0,128,208Zm-24,8a8,8,0,1,1,8-8A8.00917,8.00917,0,0,1,104,216Z" fill="#ffffff" data-original="#000000" style="" class=""/><path d="M153.94678,113.93994a48.10439,48.10439,0,0,1-28.37061,13.73242,8.00018,8.00018,0,0,0-6.57519,10.75977A15.78153,15.78153,0,0,1,120,144a16,16,0,0,1-32,0,15.78153,15.78153,0,0,1,.999-5.56787,7.999,7.999,0,0,0-6.57422-10.75928A47.99857,47.99857,0,0,1,88,32h32a47.99985,47.99985,0,0,1,39.75879,21.09961L173.001,44.12012A63.98248,63.98248,0,0,0,120,16H88A64.00787,64.00787,0,0,0,72.06152,141.99756Q72,142.99365,72,144a32,32,0,0,0,64,0q0-1.01293-.0625-2.01709a64.338,64.338,0,0,0,29.33105-16.7373,65.01315,65.01315,0,0,0,7.73291-9.37647l-13.24316-8.97852A48.9783,48.9783,0,0,1,153.94678,113.93994Z" fill="#ffffff" data-original="#000000" style="" class=""/><circle cx="104" cy="248" r="8" fill="#ffffff" data-original="#000000" style="" class=""/><path d="M280,208a24,24,0,1,0-24,24A24.02687,24.02687,0,0,0,280,208Zm-24,8a8,8,0,1,1,8-8A8.00917,8.00917,0,0,1,256,216Z" fill="#ffffff" data-original="#000000" style="" class=""/><circle cx="256" cy="248" r="8" fill="#ffffff" data-original="#000000" style="" class=""/><path d="M432,208a24,24,0,1,0-24,24A24.02687,24.02687,0,0,0,432,208Zm-24,8a8,8,0,1,1,8-8A8.00917,8.00917,0,0,1,408,216Z" fill="#ffffff" data-original="#000000" style="" class=""/><path d="M352.24219,106.90137l-13.24414,8.97754a63.93762,63.93762,0,0,0,37.064,26.11279q-.06225.99975-.062,2.0083a32,32,0,0,0,64,0q0-1.01293-.06251-2.01709a64.3184,64.3184,0,0,0,29.32228-16.729A64.00284,64.00284,0,0,0,424,16H392a63.948,63.948,0,0,0-53.02881,28.1709l13.25781,8.958A47.93907,47.93907,0,0,1,392,32h32a47.99816,47.99816,0,0,1,5.57617,95.67236,8.00018,8.00018,0,0,0-6.57519,10.75977A15.78153,15.78153,0,0,1,424,144a16,16,0,0,1-32,0,15.79252,15.79252,0,0,1,.999-5.56787,7.99943,7.99943,0,0,0-6.57422-10.75928A47.90489,47.90489,0,0,1,352.24219,106.90137Z" fill="#ffffff" data-original="#000000" style="" class=""/><circle cx="408" cy="248" r="8" fill="#ffffff" data-original="#000000" style="" class=""/><path d="M272,16H240a64.00787,64.00787,0,0,0-15.93848,125.99756Q224,142.99439,224,144a32,32,0,0,0,64,0q0-1.01293-.06251-2.01709a64.29785,64.29785,0,0,0,29.31593-16.72266l.00635-.00634A64.00284,64.00284,0,0,0,272,16Zm33.94336,97.94287a48.10123,48.10123,0,0,1-28.36719,13.72949,8.00018,8.00018,0,0,0-6.57568,10.75879A15.79722,15.79722,0,0,1,272,144a16,16,0,0,1-32,0,15.79722,15.79722,0,0,1,.99951-5.56885,7.99943,7.99943,0,0,0-6.57471-10.7583A47.99857,47.99857,0,0,1,240,32h32a48.00281,48.00281,0,0,1,33.94336,81.94287Z" fill="#ffffff" data-original="#000000" style="" class=""/><path d="M262.9458,44.03076a7.99988,7.99988,0,0,0-13.8916,0l-32,56A7.9997,7.9997,0,0,0,224,112h64a7.9997,7.9997,0,0,0,6.9458-11.96924ZM237.78564,96,256,64.12451,274.21436,96Z" fill="#ffffff" data-original="#000000" style="" class=""/><path d="M432,112a7.99977,7.99977,0,0,0,8-8V56a7.99977,7.99977,0,0,0-8-8H384a7.99977,7.99977,0,0,0-8,8v48a7.99977,7.99977,0,0,0,8,8ZM392,64h32V96H392Z" fill="#ffffff" data-original="#000000" style="" class=""/><path d="M143.88818,67.03955a7.99943,7.99943,0,0,0-7.60839-5.52783H117.43262L111.6084,43.58691a7.99994,7.99994,0,0,0-15.2168,0L90.56738,61.51172H71.72021a8,8,0,0,0-4.70214,14.47217L82.26562,87.062l-5.82421,17.92481a8,8,0,0,0,12.31054,8.94433L104,102.853l15.24805,11.07812a8,8,0,0,0,12.31054-8.94433L125.73438,87.062l15.24755-11.07812A7.99985,7.99985,0,0,0,143.88818,67.03955ZM111.62793,77.53418a7.99985,7.99985,0,0,0-2.90625,8.94434l.01172.03613-.03125-.02246a7.99974,7.99974,0,0,0-9.4043,0l-.03125.02246.01172-.03613a7.99985,7.99985,0,0,0-2.90625-8.94434l-.03076-.02246h.03857a8.00008,8.00008,0,0,0,7.6084-5.52783L104,71.94775l.01172.03614a8.00008,8.00008,0,0,0,7.6084,5.52783h.03857Z" fill="#ffffff" data-original="#000000" style="" class=""/><path d="M141.24457,360H144a23.997,23.997,0,0,0,7.57654-46.76758,55.98529,55.98529,0,0,0-111.15308,0A23.997,23.997,0,0,0,48,360h2.75543A48.02719,48.02719,0,0,0,72,385.58008V394.234l-15.17871,5.05945A47.93931,47.93931,0,0,0,24,444.83057V496H40V444.83057a31.96047,31.96047,0,0,1,21.88086-30.3584l12.45361-4.15088a23.99723,23.99723,0,0,0,43.33106,0l12.45361,4.15088A31.96047,31.96047,0,0,1,152,444.83057V496h16V444.83057a47.93931,47.93931,0,0,0-32.82129-45.53711L120,394.234v-8.65393A48.02719,48.02719,0,0,0,141.24457,360ZM144,344V328a8,8,0,0,1,0,16ZM96,280a40.06809,40.06809,0,0,1,39.19061,31.97485,36.75488,36.75488,0,0,1-29.84686-16.38159l-2.687-4.03076a8.0005,8.0005,0,0,0-13.31348,0l-2.68652,4.03076a36.75645,36.75645,0,0,1-29.84735,16.38159A40.06809,40.06809,0,0,1,96,280ZM40,336a8.00917,8.00917,0,0,1,8-8v16A8.00917,8.00917,0,0,1,40,336Zm56,72a8.00917,8.00917,0,0,1-8-8V380.67188a7.99985,7.99985,0,0,0-4.79688-7.33057A32.01935,32.01935,0,0,1,64,344V327.38257a52.68038,52.68038,0,0,0,32-17.68872,52.68281,52.68281,0,0,0,32,17.68872V344a32.01935,32.01935,0,0,1-19.20312,29.34131A7.99985,7.99985,0,0,0,104,380.67188V400A8.00917,8.00917,0,0,1,96,408Z" fill="#ffffff" data-original="#000000" style="" class=""/><circle cx="80" cy="336" r="8" fill="#ffffff" data-original="#000000" style="" class=""/><circle cx="112" cy="336" r="8" fill="#ffffff" data-original="#000000" style="" class=""/><rect x="56" y="456" width="16" height="40" fill="#ffffff" data-original="#000000" style="" class=""/><rect x="120" y="456" width="16" height="40" fill="#ffffff" data-original="#000000" style="" class=""/><circle cx="240" cy="336" r="8" fill="#ffffff" data-original="#000000" style="" class=""/><circle cx="272" cy="336" r="8" fill="#ffffff" data-original="#000000" style="" class=""/><rect x="216" y="456" width="16" height="40" fill="#ffffff" data-original="#000000" style="" class=""/><rect x="280" y="456" width="16" height="40" fill="#ffffff" data-original="#000000" style="" class=""/><path d="M328,376a16.01833,16.01833,0,0,1-16-16v-1.3761a23.994,23.994,0,0,0-.42346-45.39148,55.98529,55.98529,0,0,0-111.15308,0A23.994,23.994,0,0,0,200,358.6239V360a16.01833,16.01833,0,0,1-16,16,8.00022,8.00022,0,0,0-6.3999,12.80029,88.24142,88.24142,0,0,0,21.95117,20.652A47.92955,47.92955,0,0,0,184,444.83057V496h16V444.83057a31.96047,31.96047,0,0,1,21.88086-30.3584l12.45361-4.15088a23.99723,23.99723,0,0,0,43.33106,0l12.45361,4.15088A31.96047,31.96047,0,0,1,312,444.83057V496h16V444.83057a47.92926,47.92926,0,0,0-15.55121-35.37818A88.25048,88.25048,0,0,0,334.3999,388.7998,8,8,0,0,0,328,376Zm-24-32V328a8,8,0,0,1,0,16Zm-48-64a40.06761,40.06761,0,0,1,39.19507,32H280V296H264v16H248V296H232v16H216.80493A40.06761,40.06761,0,0,1,256,280Zm-48,48v16a8,8,0,0,1,0-16Zm8.82129,71.29346q-.943.31421-1.86542.66528A72.27928,72.27928,0,0,1,198.668,388.436a32.143,32.143,0,0,0,16.14337-19.816A47.98549,47.98549,0,0,0,232,385.58008V394.234ZM256,408a8.00917,8.00917,0,0,1-8-8V380.67188a7.99985,7.99985,0,0,0-4.79688-7.33057A32.01935,32.01935,0,0,1,224,344V328h64v16a32.01935,32.01935,0,0,1-19.20312,29.34131A7.99985,7.99985,0,0,0,264,380.67188V400A8.00917,8.00917,0,0,1,256,408Zm41.04395-8.04126q-.92277-.3501-1.86524-.66528L280,394.234v-8.65393A47.98549,47.98549,0,0,0,297.18866,368.62,32.143,32.143,0,0,0,313.332,388.436,72.30259,72.30259,0,0,1,297.044,399.95874Z" fill="#ffffff" data-original="#000000" style="" class=""/><path d="M461.24457,360H464a23.99794,23.99794,0,0,0,8-46.6239V288a23.98456,23.98456,0,0,0-40.00018-17.86926A23.90055,23.90055,0,0,0,416,264H384a24.0275,24.0275,0,0,0-24,24v25.3761A23.99794,23.99794,0,0,0,368,360h2.75543A48.02719,48.02719,0,0,0,392,385.58008V394.234l-15.17871,5.05945A47.93931,47.93931,0,0,0,344,444.83057V496h16V444.83057a31.96047,31.96047,0,0,1,21.88086-30.3584l12.45361-4.15088a23.99723,23.99723,0,0,0,43.33106,0l12.45361,4.15088A31.96047,31.96047,0,0,1,472,444.83057V496h16V444.83057a47.93931,47.93931,0,0,0-32.82129-45.53711L440,394.234v-8.65393A48.02719,48.02719,0,0,0,461.24457,360ZM464,344V328a8,8,0,0,1,0,16Zm-16-64a8.00917,8.00917,0,0,1,8,8v22.62891A24.04116,24.04116,0,0,1,440,288,8.00917,8.00917,0,0,1,448,280Zm-72,8a8.00917,8.00917,0,0,1,8-8h32a8.00917,8.00917,0,0,1,8,8,24.0275,24.0275,0,0,1-24,24H376Zm-16,48a8.00917,8.00917,0,0,1,8-8v16A8.00917,8.00917,0,0,1,360,336Zm56,72a8.00917,8.00917,0,0,1-8-8V380.67188a7.99985,7.99985,0,0,0-4.79688-7.33057A32.01935,32.01935,0,0,1,384,344V328h16a39.96332,39.96332,0,0,0,32-16.02783,40.2317,40.2317,0,0,0,16,12.678V344a32.01935,32.01935,0,0,1-19.20312,29.34131A7.99985,7.99985,0,0,0,424,380.67188V400A8.00917,8.00917,0,0,1,416,408Z" fill="#ffffff" data-original="#000000" style="" class=""/><circle cx="400" cy="336" r="8" fill="#ffffff" data-original="#000000" style="" class=""/><circle cx="432" cy="336" r="8" fill="#ffffff" data-original="#000000" style="" class=""/><rect x="376" y="456" width="16" height="40" fill="#ffffff" data-original="#000000" style="" class=""/><rect x="440" y="456" width="16" height="40" fill="#ffffff" data-original="#000000" style="" class=""/></g></g></svg>
